<?xml version="1.0" standalone="no"?>
<!DOCTYPE svg PUBLIC "-//W3C//DTD SVG 20010904//EN"
 "http://www.w3.org/TR/2001/REC-SVG-20010904/DTD/svg10.dtd">
<svg version="1.0" xmlns="http://www.w3.org/2000/svg"
 width="160.000000pt" height="160.000000pt" viewBox="0 0 160.000000 160.000000"
 preserveAspectRatio="xMidYMid meet">

<g transform="translate(0.000000,160.000000) scale(0.100000,-0.100000)"
fill="#000000" stroke="none">
<path d="M390 1215 c-30 -9 -59 -20 -64 -25 -5 -5 -4 -27 4 -54 l12 -44 34 14
c18 8 58 14 87 14 61 0 87 -19 87 -62 0 -38 -33 -61 -95 -66 l-55 -4 0 -43 0
-43 55 -7 c102 -12 148 -83 90 -140 -20 -21 -34 -25 -85 -25 -33 0 -77 7 -97
15 -19 8 -37 15 -38 15 -6 0 -25 -92 -20 -100 22 -36 209 -47 287 -17 118 46
157 182 73 256 -20 17 -47 34 -61 37 -26 7 -25 7 13 28 99 55 94 188 -10 243
-43 22 -152 26 -217 8z"/>
<path d="M901 1214 c-1 -14 -18 -32 -51 -52 -88 -55 -136 -156 -127 -268 11
-146 119 -251 268 -262 95 -7 159 17 224 82 82 81 107 198 68 312 -23 67 -102
145 -170 168 -29 9 -54 20 -56 24 -2 4 -2 0 0 -8 3 -8 7 -36 10 -61 5 -40 10
-49 38 -62 71 -34 115 -132 94 -209 -24 -91 -97 -148 -189 -148 -111 0 -190
79 -190 190 0 78 35 137 103 171 21 11 35 24 32 29 -4 6 1 10 9 10 8 0 17 4
20 9 4 5 -3 7 -14 4 -16 -4 -20 0 -21 23 -1 24 -2 25 -6 7 -2 -13 -8 -23 -14
-23 -5 0 -11 10 -13 23 -3 12 -7 31 -9 42 -4 19 -5 19 -6 -1z"/>
<path d="M1001 1194 c0 -11 3 -14 6 -6 3 7 2 16 -1 19 -3 4 -6 -2 -5 -13z"/>
<path d="M972 1180 c0 -14 2 -19 5 -12 2 6 2 18 0 25 -3 6 -5 1 -5 -13z"/>
<path d="M1011 1153 c0 -13 -6 -23 -13 -23 -6 0 -9 -2 -6 -5 9 -10 58 14 57
27 0 10 -2 10 -6 1 -7 -18 -21 -16 -26 5 -4 13 -5 11 -6 -5z"/>
<path d="M966 972 c-3 -4 4 -9 15 -9 23 -2 25 3 4 10 -8 4 -16 3 -19 -1z"/>
<path d="M872 923 c2 -22 9 -29 31 -31 24 -3 27 0 27 27 0 28 -3 31 -31 31
-27 0 -30 -3 -27 -27z m42 9 c2 -4 1 -14 -4 -22 -7 -11 -12 -12 -21 -3 -6 6
-8 16 -5 22 8 13 23 14 30 3z"/>
<path d="M950 920 c0 -16 5 -30 10 -30 6 0 10 12 10 26 0 32 22 27 31 -7 6
-21 7 -21 8 9 1 29 -2 32 -29 32 -27 0 -30 -3 -30 -30z"/>
<path d="M1034 936 c-10 -26 4 -48 28 -44 17 2 23 10 23 28 0 18 -6 26 -23 28
-13 2 -25 -3 -28 -12z m42 -7 c10 -17 -13 -36 -27 -22 -12 12 -4 33 11 33 5 0
12 -5 16 -11z"/>
<path d="M1110 939 c0 -7 8 -18 18 -26 15 -13 15 -13 -8 -7 -19 5 -22 4 -14
-6 14 -14 46 -10 51 7 2 6 -6 15 -19 19 -22 7 -22 7 -3 15 19 7 19 8 -2 8 -13
1 -23 -4 -23 -10z"/>
<path d="M355 526 c-31 -32 -41 -87 -24 -134 28 -74 145 -95 200 -36 20 21 24
36 24 86 0 53 -3 62 -28 84 -23 20 -39 24 -88 24 -50 0 -64 -4 -84 -24z m121
-37 c14 -24 7 -92 -12 -106 -23 -17 -29 -16 -48 3 -19 18 -21 85 -4 102 15 15
55 16 64 1z"/>
<path d="M592 438 l3 -113 37 -3 37 -3 3 53 3 53 34 -53 c30 -48 37 -53 65
-50 l31 3 3 113 3 112 -40 0 -40 0 -3 -47 -3 -48 -33 48 c-29 41 -38 47 -68
47 l-35 0 3 -112z"/>
<path d="M842 438 l3 -113 38 -3 c36 -3 37 -2 37 31 0 33 2 35 42 41 59 10 78
30 78 82 0 60 -23 74 -123 74 l-78 0 3 -112z m116 35 c3 -19 -1 -23 -22 -23
-21 0 -26 5 -26 26 0 21 4 25 23 22 14 -2 23 -11 25 -25z"/>
<path d="M1080 435 l0 -115 80 0 80 0 0 30 c0 28 -2 30 -40 30 -29 0 -40 4
-40 15 0 10 10 15 31 15 27 0 30 3 27 28 -2 22 -8 27 -30 26 -21 -1 -28 4 -28
17 0 15 8 19 40 19 36 0 40 3 40 25 0 25 -1 25 -80 25 l-80 0 0 -115z"/>
</g>
</svg>
